<?xml version="1.0" encoding="UTF-8"?><svg xmlns="http://www.w3.org/2000/svg" xmlns:xlink="http://www.w3.org/1999/xlink" viewBox="0 0 2048 2048"><defs><style>.cls-1{filter:url(#DestShadow);}.cls-2,.cls-3{opacity:.8;}.cls-2,.cls-4,.cls-5,.cls-6,.cls-7,.cls-8,.cls-9,.cls-10,.cls-11,.cls-12,.cls-13{stroke-width:0px;}.cls-2,.cls-5,.cls-12{fill:#fff;}.cls-14{filter:url(#MapShadow);}.cls-15{stroke:#8c8c8d;stroke-width:.5px;}.cls-15,.cls-16{fill:none;}.cls-16{stroke:#b4d0ea;}.cls-5{opacity:0;}.cls-6{fill:#76aad9;}.cls-7{fill:#d9d9d9;}.cls-8{fill:#b3b3b3;}.cls-9{fill:#737373;}.cls-10{fill:#72a48f;}.cls-11{fill:#8c8c8d;}.cls-13{fill:#ededed;}</style><symbol id="dest_1002" viewBox="0 0 48.68 90.008"><polygon class="cls-7" points="9.531 90.008 9.531 22.408 0 22.408 0 0 48.68 0 48.68 90.008 9.531 90.008"/></symbol><symbol id="dest_1003" viewBox="0 0 36.417 67.6"><rect class="cls-7" x="0" width="36.417" height="67.6"/></symbol><symbol id="dest_1004" viewBox="0 0 22.781 72.456"><polygon class="cls-7" points="0 72.456 0 0 22.781 0 22.781 67.599 18.302 72.456 0 72.456"/></symbol><symbol id="dest_1005" viewBox="0 0 26.336 91.875"><polygon class="cls-7" points="0 0 0 87.022 3.925 91.875 9.528 91.875 26.336 72.456 26.336 0 0 0"/></symbol><symbol id="dest_1005A" viewBox="0 0 27.073 72.084"><polygon class="cls-7" points="0 72.084 0 0 27.073 0 27.073 58.264 11.203 72.084 0 72.084"/></symbol><symbol id="dest_1006" viewBox="0 0 63.678 86.639"><polygon class="cls-7" points="0 0 0 86.639 36.605 86.639 36.605 14.555 63.678 14.555 63.678 0 0 0"/></symbol><symbol id="dest_1007" viewBox="0 0 36.602 86.639"><rect class="cls-7" width="36.602" height="86.639"/></symbol><symbol id="dest_1009" viewBox="0 0 36.977 72.439"><polygon class="cls-7" points="24.475 0 24.475 18.264 0 18.264 0 72.439 36.977 72.439 36.977 0 24.475 0"/></symbol><symbol id="dest_1010" viewBox="0 0 33.987 86.639"><rect class="cls-7" x="0" width="33.987" height="86.639"/></symbol><symbol id="dest_1011" viewBox="0 0 40.699 86.639"><polygon class="cls-7" points="40.699 86.639 10.084 86.639 0 79.355 0 0 40.699 0 40.699 86.639"/></symbol><symbol id="dest_1013" viewBox="0 0 23.724 57.419"><polygon class="cls-7" points="23.724 0 0 0 0 57.419 17 57.419 23.724 50.287 23.724 0"/></symbol><symbol id="dest_1014" viewBox="0 0 50.725 86.639"><polygon class="cls-7" points="0 0 50.725 0 50.725 86.639 46.812 86.639 32.619 75.621 24.775 75.621 24.775 38.459 0 38.459 0 0"/></symbol><symbol id="dest_1015" viewBox="0 0 24.775 37.162"><rect class="cls-7" y="0" width="24.775" height="37.162"/></symbol><symbol id="dest_1016" viewBox="0 0 23.031 78.423"><polygon class="cls-7" points="0 0 23.031 0 23.031 75.621 10.831 75.621 3.829 78.423 0 78.423 0 0"/></symbol><symbol id="dest_1017" viewBox="0 0 25.021 41.083"><rect class="cls-7" width="25.021" height="41.083"/></symbol><symbol id="dest_1018" viewBox="0 0 56.023 78.423"><polygon class="cls-7" points="0 28.748 8.964 28.748 8.964 0 56.023 0 56.023 37.339 31.003 37.339 31.003 78.423 0 78.423 0 28.748"/></symbol><symbol id="dest_1019" viewBox="0 0 126.048 137.848"><polygon class="cls-7" points="73.389 66.23 0 66.23 0 0 126.048 0 126.048 56.031 120.826 56.031 120.826 134.454 99.162 134.454 79.367 137.848 73.389 137.848 73.389 66.23"/></symbol><symbol id="dest_1019A" viewBox="0 0 35.852 78.422"><polygon class="cls-7" points="0 0 0 78.422 26.889 78.422 26.889 28.748 35.852 28.748 35.852 0 0 0"/></symbol><symbol id="dest_1020" viewBox="0 0 49.422 71.619"><polygon class="cls-7" points="13.942 71.619 13.942 36.849 0 36.849 0 0 49.422 0 49.422 71.619 13.942 71.619"/></symbol><symbol id="dest_1021A" viewBox="0 0 13.943 34.77"><rect class="cls-7" width="13.943" height="34.77"/></symbol><symbol id="dest_1021B" viewBox="0 0 23.967 71.619"><polygon class="cls-7" points="6.164 71.619 6.164 19.297 0 16.307 0 0 23.967 0 23.967 71.619 6.164 71.619"/></symbol><symbol id="dest_1022" viewBox="0 0 55.65 81.817"><polygon class="cls-7" points="0 0 0 81.817 55.65 81.817 55.65 29.495 49.486 26.506 49.486 0 0 0"/></symbol><symbol id="dest_1024" viewBox="0 0 35.854 81.817"><rect class="cls-7" width="35.854" height="81.817"/></symbol><symbol id="dest_1025" viewBox="0 0 45.566 81.816"><polygon class="cls-7" points="0 0 0 28.871 19.051 28.871 19.051 81.816 45.566 81.816 45.566 0 0 0"/></symbol><symbol id="dest_1026" viewBox="0 0 33.836 81.816"><polygon class="cls-7" points="14.785 28.871 14.785 0 0 0 0 28.871 8.809 28.871 8.809 81.816 33.836 81.816 33.836 28.871 14.785 28.871"/></symbol><symbol id="dest_1027" viewBox="0 0 66.484 81.816"><polygon class="cls-7" points="59.676 28.871 59.676 0 32.109 0 32.109 7.58 0 7.58 0 81.816 66.484 81.816 66.484 28.871 59.676 28.871"/></symbol><symbol id="dest_1029" viewBox="0 0 79.168 81.816"><polygon class="cls-7" points="79.168 7.58 79.168 0 47.059 0 0 0 0 81.816 47.059 81.816 47.059 7.58 79.168 7.58"/></symbol><symbol id="dest_1030" viewBox="0 0 30.621 81.817"><rect class="cls-7" width="30.621" height="81.817"/></symbol><symbol id="dest_1031" viewBox="0 0 29.51 81.817"><rect class="cls-7" width="29.51" height="81.817"/></symbol><symbol id="dest_1031A" viewBox="0 0 17.182 81.817"><polygon class="cls-7" points="0 0 0 75.808 6.354 81.817 17.182 81.817 17.182 0 0 0"/></symbol><symbol id="dest_1032" viewBox="0 0 80.133 57.666"><polygon class="cls-7" points="67.677 57.666 0 57.666 .023 0 37.802 0 37.802 9.708 80.133 9.708 80.133 41.081 67.677 52.662 67.677 57.666"/></symbol><symbol id="dest_1032A" viewBox="0 0 37.779 38.844"><rect class="cls-7" width="37.779" height="38.844"/></symbol><symbol id="dest_1032B" viewBox="0 0 42.331 48.552"><polygon class="cls-7" points="26.516 0 0 0 0 48.552 42.331 48.552 42.331 15.405 26.516 0"/></symbol><symbol id="dest_1033" viewBox="0 0 31.688 25.412"><rect class="cls-7" y="0" width="31.688" height="25.412"/></symbol><symbol id="dest_1034" viewBox="0 0 41.636 28.385"><rect class="cls-7" x="0" width="41.636" height="28.385"/></symbol><symbol id="dest_1034A" viewBox="0 0 120.309 37.85"><rect class="cls-7" width="120.309" height="37.85"/></symbol><symbol id="dest_1035" viewBox="0 0 41.636 46.685"><polygon class="cls-7" points="0 15.033 15.734 0 41.636 0 41.636 46.685 0 46.685 0 15.033"/></symbol><symbol id="dest_1036" viewBox="0 0 38.991 75.071"><rect class="cls-7" x="0" width="38.991" height="75.071"/></symbol><symbol id="dest_1037" viewBox="0 0 39.682 75.071"><rect class="cls-7" width="39.682" height="75.071"/></symbol><symbol id="dest_1038" viewBox="0 0 25.243 75.071"><rect class="cls-7" width="25.243" height="75.071"/></symbol><symbol id="dest_1039" viewBox="0 0 24.898 38.841"><rect class="cls-7" width="24.898" height="38.841"/></symbol><symbol id="dest_1040" viewBox="0 0 182.504 288.336"><polygon class="cls-7" points="135.82 75.07 135.82 0 82.406 0 82.406 38.844 57.508 38.844 57.508 75.07 32.266 75.07 32.266 112.922 55.516 112.922 55.516 149.398 32.359 149.398 32.359 167.551 32.359 267.457 16.426 267.457 16.426 276.004 0 276.004 0 288.336 155.43 288.336 155.43 251.727 182.504 251.727 182.504 75.07 135.82 75.07"/></symbol><symbol id="dest_1042" viewBox="0 0 46.684 75.071"><rect class="cls-7" width="46.684" height="75.071"/></symbol><symbol id="dest_1043" viewBox="0 0 48.859 43.135"><rect class="cls-7" width="48.859" height="43.135"/></symbol><symbol id="dest_1044" viewBox="0 0 48.859 68.631"><rect class="cls-7" width="48.859" height="68.631"/></symbol><symbol id="dest_1047" viewBox="0 0 49.115 60.503"><rect class="cls-7" width="49.115" height="60.503"/></symbol><symbol id="dest_1048" viewBox="0 0 24.089 60.503"><rect class="cls-7" x="0" y="0" width="24.089" height="60.503"/></symbol><symbol id="dest_1049" viewBox="0 0 37.908 60.503"><rect class="cls-7" y="0" width="37.908" height="60.503"/></symbol><symbol id="dest_1050" viewBox="0 0 36.414 60.503"><rect class="cls-7" y="0" width="36.414" height="60.503"/></symbol><symbol id="dest_1051" viewBox="0 0 37.347 60.503"><rect class="cls-7" y="0" width="37.347" height="60.503"/></symbol><symbol id="dest_1052" viewBox="0 0 36.792 60.503"><rect class="cls-7" width="36.792" height="60.503"/></symbol><symbol id="dest_1052A" viewBox="0 0 37.906 60.503"><rect class="cls-7" x="0" y="0" width="37.906" height="60.503"/></symbol><symbol id="dest_1053" viewBox="0 0 70.965 53.409"><polygon class="cls-7" points="0 13.82 14.943 0 70.965 0 70.965 53.409 0 53.409 0 13.82"/></symbol><symbol id="dest_1055" viewBox="0 0 102.709 57.514"><polygon class="cls-7" points="85.526 0 4.857 0 0 4.104 0 57.514 102.709 57.514 102.709 15.313 85.526 0"/></symbol><symbol id="dest_1057A" viewBox="0 0 53.414 42.203"><polygon class="cls-7" points="19.418 18.207 19.418 0 0 0 0 29.883 11.203 42.203 53.414 42.203 53.414 18.207 19.418 18.207"/></symbol><symbol id="dest_1057B" viewBox="0 0 56.773 62.371"><polygon class="cls-7" points="56.773 0 0 0 0 20.168 0 38.375 33.996 38.375 33.996 62.371 56.773 62.371 56.773 0"/></symbol><symbol id="dest_1058" viewBox="0 0 36.227 32.082"><polygon class="cls-7" points="36.227 0 0 0 0 24.008 13.975 24.008 13.975 32.082 36.227 32.082 36.227 0"/></symbol><symbol id="dest_1059" viewBox="0 0 91.291 62.371"><polygon class="cls-7" points="81.207 0 0 0 0 62.371 31.16 62.371 31.16 48.178 49.084 48.178 91.291 30.25 81.207 0"/></symbol><symbol id="dest_1060" viewBox="0 0 151.281 109.254"><polyline class="cls-7" points="104.203 0 151.281 104.459 140.703 109.254 0 109.254 0 0 104.203 0"/></symbol><symbol id="dest_1062" viewBox="0 0 53.969 73.254"><rect class="cls-7" width="53.969" height="73.254"/></symbol><symbol id="dest_1063_64" viewBox="0 0 103.478 73.254"><polygon class="cls-7" points="23.549 0 23.549 10.736 0 10.736 0 73.254 103.479 73.254 103.479 0 23.549 0"/></symbol><symbol id="dest_1065A" viewBox="0 0 53.98 73.254"><rect class="cls-7" width="53.98" height="73.254"/></symbol><symbol id="dest_1065B" viewBox="0 0 25.947 73.254"><rect class="cls-7" width="25.947" height="73.254"/></symbol><symbol id="dest_1067" viewBox="0 0 51.419 73.251"><polygon class="cls-7" points="0 60.55 0 0 51.419 0 51.419 73.251 11.456 73.251 0 60.55"/></symbol><symbol id="dest_DDS2" viewBox="0 0 294.908 433.252"><rect class="cls-7" width="294.908" height="433.252"/></symbol><symbol id="dest_K102" viewBox="0 0 20.543 13.445"><rect class="cls-7" width="20.543" height="13.445"/></symbol><symbol id="dest_K103-2" viewBox="0 0 20.541 13.445"><rect class="cls-7" width="20.541" height="13.445"/></symbol><symbol id="dest_K104" viewBox="0 0 18.675 14.565"><rect class="cls-7" x="0" y="0" width="18.675" height="14.565"/></symbol><symbol id="dest_K105" viewBox="0 0 28.381 20.912"><polygon class="cls-7" points="28.381 16.598 28.381 0 0 0 0 20.912 23.361 20.912 23.361 16.998 28.381 16.598"/></symbol><symbol id="dest_K107" viewBox="0 0 25.396 20.912"><rect class="cls-7" width="25.396" height="20.912"/></symbol><symbol id="dest_K108" viewBox="0 0 25.398 20.914"><rect class="cls-7" width="25.398" height="20.914"/></symbol><symbol id="dest_K111" viewBox="0 0 21.006 19.482"><rect class="cls-7" width="21.006" height="19.482"/></symbol><symbol id="dest_K112" viewBox="0 0 27.236 22.752"><rect class="cls-7" x="0" width="27.236" height="22.752"/></symbol><symbol id="dest_K113" viewBox="0 0 19.4 21"><rect class="cls-7" x="0" width="19.4" height="21"/></symbol><symbol id="dest_K115" viewBox="0 0 42.206 25.771"><rect class="cls-7" x="0" width="42.206" height="25.771"/></symbol><symbol id="dest_MM1" viewBox="0 0 243.179 163.465"><polygon class="cls-7" points="211.491 23.412 211.491 0 163.046 0 163.069 32.117 0 32.117 0 163.465 243.179 163.465 243.179 25.412 211.491 25.412 211.491 23.412"/></symbol><symbol id="dest_MM2A" viewBox="0 0 143.563 68.324"><polygon class="cls-7" points="82.398 54.629 120.406 54.629 120.406 36.477 143.563 36.477 143.563 0 0 0 0 68.324 82.398 68.324 82.398 54.629"/></symbol><symbol id="dest_MM2B" viewBox="0 0 109.248 120.785"><polygon class="cls-7" points="109.248 86.5 109.248 0 82.398 0 82.398 13.695 0 13.695 0 120.785 35.109 120.785 35.109 86.5 109.248 86.5"/></symbol><symbol id="dest_MM3" viewBox="0 0 162.705 288.332"><polygon class="cls-7" points="125.543 0 125.543 60.503 162.705 60.503 162.705 288.332 0 288.332 0 225.962 48.857 225.962 48.857 0 125.543 0"/></symbol><symbol id="dest_SM1" viewBox="0 0 447.25 227.832"><polygon class="cls-7" points="298.971 0 0 0 0 227.832 447.25 227.832 447.25 163.963 408.781 163.963 408.781 13.07 332.586 13.07 298.971 0"/></symbol><symbol id="dest_SM2" viewBox="0 0 435.865 244.639"><polygon class="cls-7" points="435.865 0 135.201 0 135.201 29.877 0 29.877 0 180.771 38.471 180.771 38.471 244.639 435.865 244.639 435.865 0"/></symbol><symbol id="dest_Santa" viewBox="0 0 74.637 23.488"><rect class="cls-5" width="74.637" height="23.488"/></symbol><symbol id="label_Esc" viewBox="0 0 7.305 6"><g class="cls-3"><path class="cls-12" d="m2.852,1.267c.177,0,.328-.066.445-.189.121-.113.188-.268.188-.445s-.066-.331-.188-.444c-.117-.123-.269-.189-.445-.189-.18,0-.333.066-.445.189-.125.113-.188.267-.188.444s.062.333.188.445c.112.123.266.189.445.189Z"/><path class="cls-12" d="m6.367.661h-.852c-.285,0-.551.119-.729.327l-1.052,1.109c-.047-.133-.148-.246-.308-.331-.005-.003-.009-.006-.013-.007-.172-.076-.352-.114-.526-.114-.231,0-.419.045-.56.139-.188.097-.29.264-.29.472v1.263c.005.105.036.201.083.284l-.426.451h-.758c-.516,0-.938.393-.938.875s.422.873.938.873h1.203c.284,0,.551-.119.729-.327l3.091-3.267h.406c.516,0,.938-.393.938-.873s-.422-.873-.938-.873Zm0,1.289h-.602l-3.229,3.413-.009.009c-.09.108-.234.171-.387.171H.938c-.265,0-.481-.186-.481-.416s.217-.417.481-.417h.954l3.229-3.412.009-.01c.091-.107.234-.17.387-.17h.852c.265,0,.481.186.481.416,0,.229-.217.416-.481.416Z"/></g></symbol><symbol id="label_ParentsRoom" viewBox="0 0 9.804 14"><g class="cls-3"><path class="cls-12" d="m4.902,3.936c1.087.001,1.969-.879,1.967-1.969.002-1.087-.88-1.967-1.967-1.967s-1.968.88-1.968,1.967.881,1.97,1.968,1.969"/><path class="cls-12" d="m4.902,2.029"/><path class="cls-12" d="m4.898,8.116h-2.08v-1.507l-1.593,1.605c-.718.718-1.692-.204-.972-.924l2.636-2.641c.213-.212.447-.346.819-.347h2.362c.37.001.62.131.844.347l2.659,2.669c.686.684-.314,1.615-.974.92l-1.631-1.635v1.513h-2.071"/><path class="cls-12" d="m6.96,8.895l-1.565,1.564,1.147,1.146-1.175,1.174c-.694.696.263,1.69.98.972l1.862-1.936c.397-.407.509-1.161.082-1.59-.003-.001-1.332-1.33-1.332-1.33"/><path class="cls-12" d="m2.818,8.895l1.565,1.564-1.149,1.146,1.179,1.174c.691.696-.267,1.69-.984.972l-1.858-1.936c-.402-.407-.513-1.161-.083-1.59l1.331-1.33"/></g></symbol><symbol id="label_Toilet" viewBox="0 0 15.195 14"><rect class="cls-2" x="7.592" y=".122" width=".718" height="13.796"/><path class="cls-2" d="m3.217,2.276c.629,0,1.136-.512,1.136-1.142s-.507-1.134-1.136-1.134-1.142.505-1.142,1.134.513,1.142,1.142,1.142"/><path class="cls-2" d="m3.045,9.488v3.979c0,.711-1.071.711-1.071,0v-3.979H.552l1.523-5.277h-.238l-.902,3.015c-.214.655-1.116.382-.902-.321l.989-3.276c.105-.375.582-1.025,1.395-1.025h1.573c.806,0,1.278.656,1.402,1.025l.997,3.276c.198.702-.696.997-.91.306l-.902-3h-.251l1.536,5.277h-1.427v3.979c0,.711-1.066.705-1.066,0v-3.979h-.323Z"/><path class="cls-2" d="m11.331,2.59c-.793,0-1.441.664-1.441,1.49v3.516c0,.688.99.688.99,0v-3.215h.232v8.921c0,.909,1.32.882,1.32,0v-5.229h.225v5.229c0,.882,1.32.909,1.32,0V4.381h.238v3.215c0,.695.979.695.979,0v-3.496c0-.758-.588-1.503-1.471-1.503l-2.393-.007Z"/><path class="cls-2" d="m12.534,2.276c.629,0,1.143-.512,1.143-1.142s-.514-1.134-1.143-1.134-1.135.505-1.135,1.134.506,1.142,1.135,1.142"/></symbol><symbol id="label_ToiletAcc" viewBox="0 0 11.156 14"><g class="cls-3"><path class="cls-12" d="m3.834,2.462c.684,0,1.233-.556,1.233-1.232,0-.682-.55-1.23-1.233-1.23-.678,0-1.231.548-1.231,1.23,0,.676.554,1.232,1.231,1.232Z"/><path class="cls-12" d="m9.824,11.624c.196.321.647.451.988.249.336-.204.439-.629.247-.984l-2.1-3.624c-.13-.219-.36-.343-.597-.349h-3.08l-.028-.931h2.237c.306-.017.556-.25.556-.562,0-.308-.242-.548-.556-.561h-2.302l-.081-1.055c-.043-.646-.599-1.155-1.254-1.12-.656.039-1.154.603-1.121,1.258l.214,3.735c.055.656.605,1.124,1.253,1.121h3.992l1.629,2.824h.002Z"/><path class="cls-12" d="m4.626,13.029c-2.02,0-3.656-1.633-3.656-3.657,0-1.107.501-2.097,1.281-2.768l-.065-1.143c-1.307.817-2.186,2.256-2.186,3.91,0,2.554,2.069,4.629,4.626,4.629,1.882,0,3.491-1.134,4.215-2.747l-.651-1.127c-.35,1.653-1.805,2.903-3.563,2.903h0Z"/></g></symbol><symbol id="label_Trav" viewBox="0 0 4.31 3"><g class="cls-3"><path class="cls-12" d="m1.852.694c-.098,0-.182-.036-.244-.104-.068-.062-.104-.146-.104-.243,0-.098.035-.182.104-.244.062-.067.146-.104.244-.104.096,0,.182.036.242.104.068.062.104.146.104.244,0,.097-.035.181-.104.243-.061.067-.146.104-.242.104Z"/><path class="cls-12" d="m1.463,1.852l.678-.133s.203-.04.203-.04v-.49c0-.01,0-.02-.004-.028-.023-.079-.082-.144-.172-.193-.004,0-.006-.002-.008-.003-.096-.042-.193-.063-.289-.063-.125,0-.229.025-.307.076-.104.054-.158.146-.158.259v.441c.004.066.023.125.057.175Z"/><path class="cls-12" d="m.497,3c-.096,0-.184-.025-.266-.075-.121-.078-.195-.184-.221-.315-.027-.139,0-.265.078-.377.086-.114.197-.183.332-.208l3.285-.64c.139-.025.264,0,.373.075.119.069.195.175.221.306.027.139,0,.265-.078.377-.086.114-.197.183-.332.207l-3.287.641c-.035.007-.07.01-.105.01Zm3.311-1.372c-.018,0-.035,0-.053.005L.467,2.272c-.074.014-.131.049-.176.108-.035.051-.049.11-.035.181.014.062.047.11.109.15.055.033.117.044.189.03l3.287-.64c.072-.014.131-.049.176-.108.035-.052.047-.11.035-.181-.012-.06-.045-.104-.104-.137-.004-.002-.008-.004-.01-.006-.041-.029-.086-.043-.133-.043Z"/><path class="cls-12" d="m.497,3c-.096,0-.184-.025-.266-.075-.121-.078-.195-.184-.221-.315-.027-.139,0-.265.078-.377.086-.114.197-.183.332-.208l3.285-.64c.139-.025.264,0,.373.075.119.069.195.175.221.306.027.139,0,.265-.078.377-.086.114-.197.183-.332.207l-3.287.641c-.035.007-.07.01-.105.01Zm3.311-1.372c-.018,0-.035,0-.053.005L.467,2.272c-.074.014-.131.049-.176.108-.035.051-.049.11-.035.181.014.062.047.11.109.15.055.033.117.044.189.03l3.287-.64c.072-.014.131-.049.176-.108.035-.052.047-.11.035-.181-.012-.06-.045-.104-.104-.137-.004-.002-.008-.004-.01-.006-.041-.029-.086-.043-.133-.043Z"/></g></symbol><symbol id="road_MoggillRd" viewBox="0 0 200.59 17.377"><path class="cls-9" d="m0,17.089V.288h2.351l6.049,11.713L14.4.288h2.375v16.801h-2.016V3.889l-5.616,10.8h-1.512L2.016,3.912v13.177H0Z"/><path class="cls-9" d="m30.359,17.377c-1.649,0-3.092-.364-4.332-1.093-1.24-.728-2.208-1.748-2.904-3.06-.695-1.312-1.043-2.824-1.043-4.536s.348-3.22,1.043-4.524c.696-1.304,1.664-2.323,2.904-3.06,1.24-.735,2.684-1.105,4.332-1.105,1.664,0,3.116.369,4.355,1.105,1.24.736,2.205,1.756,2.893,3.06.688,1.305,1.032,2.812,1.032,4.524s-.345,3.225-1.032,4.536c-.688,1.312-1.652,2.332-2.893,3.06-1.239.729-2.691,1.093-4.355,1.093Zm0-1.776c1.232,0,2.316-.276,3.252-.828.936-.552,1.664-1.344,2.184-2.376.52-1.032.781-2.268.781-3.708s-.261-2.672-.781-3.696c-.52-1.023-1.248-1.812-2.184-2.363-.935-.553-2.019-.828-3.252-.828s-2.317.275-3.252.828c-.935.552-1.664,1.34-2.184,2.363-.52,1.024-.78,2.256-.78,3.696s.26,2.676.78,3.708c.52,1.032,1.248,1.824,2.184,2.376.935.552,2.02.828,3.252.828Z"/><path class="cls-9" d="m51.168,17.377c-1.568,0-2.945-.364-4.129-1.093-1.184-.728-2.104-1.743-2.76-3.048-.656-1.304-.984-2.812-.984-4.523s.332-3.225.996-4.536c.664-1.312,1.608-2.336,2.832-3.072,1.225-.735,2.668-1.105,4.332-1.105,1.889,0,3.46.456,4.717,1.368,1.256.912,2.067,2.169,2.435,3.769h-2.328c-.225-1.008-.756-1.809-1.596-2.4-.84-.592-1.916-.888-3.229-.888-1.233,0-2.304.275-3.216.828-.912.552-1.62,1.34-2.124,2.363-.504,1.024-.756,2.249-.756,3.673s.248,2.647.744,3.672c.496,1.023,1.184,1.812,2.064,2.363.879.553,1.903.828,3.071.828,1.792,0,3.144-.523,4.056-1.571.912-1.048,1.432-2.484,1.56-4.309h-4.848v-1.584h6.912v8.977h-1.849l-.168-2.761c-.608.977-1.352,1.729-2.231,2.257-.881.527-2.049.792-3.504.792Z"/><path class="cls-9" d="m71.735,17.377c-1.568,0-2.944-.364-4.128-1.093-1.185-.728-2.105-1.743-2.76-3.048-.656-1.304-.984-2.812-.984-4.523s.332-3.225.996-4.536c.664-1.312,1.607-2.336,2.832-3.072,1.224-.735,2.668-1.105,4.332-1.105,1.888,0,3.459.456,4.716,1.368,1.256.912,2.067,2.169,2.437,3.769h-2.328c-.225-1.008-.756-1.809-1.596-2.4-.841-.592-1.917-.888-3.229-.888-1.232,0-2.305.275-3.217.828-.912.552-1.619,1.34-2.123,2.363-.504,1.024-.756,2.249-.756,3.673s.248,2.647.744,3.672c.495,1.023,1.183,1.812,2.063,2.363.88.553,1.903.828,3.071.828,1.793,0,3.145-.523,4.057-1.571.912-1.048,1.432-2.484,1.56-4.309h-4.849v-1.584h6.912v8.977h-1.849l-.168-2.761c-.607.977-1.352,1.729-2.231,2.257-.88.527-2.048.792-3.504.792Z"/><path class="cls-9" d="m85.079,17.089V.288h2.016v16.801h-2.016Z"/><path class="cls-9" d="m93.047,17.089V.288h2.016v15.192h7.824v1.608h-9.84Z"/><path class="cls-9" d="m108.047,17.089V.288h2.016v15.192h7.824v1.608h-9.84Z"/><path class="cls-9" d="m131.807,17.089V.288h5.424c1.312,0,2.384.217,3.216.648.832.432,1.448,1.024,1.849,1.776.399.752.6,1.584.6,2.495,0,1.057-.284,2.009-.852,2.856-.568.849-1.453,1.448-2.652,1.8l3.672,7.225h-2.376l-3.408-6.937h-3.456v6.937h-2.016Zm2.016-8.521h3.264c1.297,0,2.24-.312,2.832-.936.592-.624.889-1.424.889-2.4,0-.992-.293-1.779-.877-2.364-.584-.584-1.539-.876-2.867-.876h-3.24v6.576Z"/><path class="cls-9" d="m156.07,17.377c-1.648,0-3.092-.364-4.332-1.093-1.24-.728-2.208-1.748-2.904-3.06-.695-1.312-1.044-2.824-1.044-4.536s.349-3.22,1.044-4.524c.696-1.304,1.664-2.323,2.904-3.06,1.24-.735,2.684-1.105,4.332-1.105,1.664,0,3.115.369,4.355,1.105,1.24.736,2.205,1.756,2.892,3.06.688,1.305,1.031,2.812,1.031,4.524s-.344,3.225-1.031,4.536c-.688,1.312-1.652,2.332-2.892,3.06-1.24.729-2.691,1.093-4.355,1.093Zm0-1.776c1.232,0,2.316-.276,3.252-.828.936-.552,1.664-1.344,2.184-2.376.52-1.032.78-2.268.78-3.708s-.261-2.672-.78-3.696c-.52-1.023-1.248-1.812-2.184-2.363-.935-.553-2.019-.828-3.252-.828s-2.316.275-3.252.828c-.935.552-1.664,1.34-2.184,2.363-.52,1.024-.781,2.256-.781,3.696s.261,2.676.781,3.708c.52,1.032,1.248,1.824,2.184,2.376.936.552,2.02.828,3.252.828Z"/><path class="cls-9" d="m167.398,17.089L173.59.288h2.137l6.168,16.801h-2.137l-1.535-4.32h-7.152l-1.561,4.32h-2.111Zm4.271-5.952h5.953l-2.976-8.305-2.977,8.305Z"/><path class="cls-9" d="m186.79,17.089V.288h5.16c2.96,0,5.14.753,6.54,2.257,1.4,1.504,2.1,3.567,2.1,6.191,0,2.576-.699,4.612-2.1,6.108s-3.58,2.244-6.54,2.244h-5.16Zm2.017-1.681h3.096c1.632,0,2.932-.268,3.9-.804.967-.536,1.659-1.304,2.075-2.304s.624-2.188.624-3.564c0-1.407-.208-2.616-.624-3.624s-1.108-1.784-2.075-2.328c-.969-.544-2.269-.815-3.9-.815h-3.096v13.439Z"/></symbol><symbol id="road_MusgraveRd" viewBox="0 0 222.262 17.377"><path class="cls-9" d="m0,17.089V.288h2.352l6.049,11.712L14.4.288h2.376v16.801h-2.017V3.889l-5.616,10.8h-1.512L2.016,3.912v13.177H0Z"/><path class="cls-9" d="m28.8,17.377c-1.152,0-2.196-.229-3.132-.685-.936-.456-1.684-1.164-2.244-2.124-.561-.96-.84-2.184-.84-3.672V.288h2.016v10.633c0,1.632.393,2.815,1.176,3.552.784.736,1.809,1.104,3.072,1.104s2.279-.367,3.049-1.104c.768-.736,1.15-1.92,1.15-3.552V.288h2.018v10.608c0,1.488-.281,2.712-.842,3.672-.559.96-1.311,1.668-2.255,2.124-.944.456-2,.685-3.168.685Z"/><path class="cls-9" d="m46.223,17.377c-1.232,0-2.304-.225-3.215-.673-.912-.447-1.617-1.071-2.112-1.872-.497-.8-.744-1.728-.744-2.783h2.112c0,.656.151,1.26.455,1.812.305.552.748.992,1.333,1.32.583.328,1.308.492,2.171.492,1.137,0,2.017-.272,2.641-.816.625-.544.936-1.224.936-2.04,0-.672-.143-1.212-.433-1.62-.287-.408-.676-.739-1.164-.996-.488-.256-1.048-.479-1.68-.672-.633-.191-1.293-.408-1.981-.647-1.295-.448-2.256-1.004-2.879-1.668-.625-.664-.938-1.532-.938-2.604-.016-.896.192-1.691.625-2.388.432-.696,1.044-1.24,1.836-1.632.792-.393,1.731-.589,2.82-.589,1.071,0,2.004.201,2.795.601.793.4,1.408.952,1.849,1.656.44.704.667,1.504.684,2.399h-2.112c0-.464-.119-.924-.359-1.38-.24-.456-.604-.828-1.092-1.116s-1.1-.432-1.836-.432c-.912-.016-1.66.216-2.244.696-.584.479-.877,1.144-.877,1.992,0,.72.205,1.271.613,1.655.407.385.979.7,1.716.948.735.248,1.583.532,2.544.852.8.288,1.52.624,2.16,1.009.64.384,1.141.88,1.5,1.487.359.608.54,1.385.54,2.328,0,.801-.208,1.557-.624,2.269-.416.712-1.045,1.292-1.885,1.739-.84.448-1.892.673-3.156.673Z"/><path class="cls-9" d="m64.367,17.377c-1.568,0-2.944-.364-4.128-1.093-1.185-.728-2.105-1.743-2.76-3.048-.657-1.304-.985-2.812-.985-4.523s.332-3.225.996-4.536c.665-1.312,1.608-2.336,2.832-3.072,1.225-.735,2.668-1.105,4.333-1.105,1.888,0,3.46.457,4.716,1.368,1.256.912,2.068,2.169,2.436,3.769h-2.327c-.225-1.008-.757-1.808-1.597-2.4-.84-.592-1.916-.888-3.228-.888-1.233,0-2.304.276-3.216.828s-1.621,1.34-2.125,2.363c-.504,1.024-.756,2.249-.756,3.673s.248,2.647.744,3.672c.496,1.023,1.184,1.812,2.064,2.364.88.552,1.904.827,3.072.827,1.791,0,3.144-.523,4.055-1.571.912-1.048,1.433-2.484,1.56-4.309h-4.848v-1.584h6.912v8.977h-1.848l-.168-2.761c-.609.977-1.353,1.729-2.233,2.257-.881.527-2.049.792-3.504.792Z"/><path class="cls-9" d="m77.711,17.089V.288h5.424c1.312,0,2.384.217,3.217.648.831.432,1.447,1.024,1.848,1.776.399.752.6,1.584.6,2.496,0,1.056-.284,2.008-.852,2.855-.568.849-1.453,1.448-2.652,1.8l3.672,7.225h-2.376l-3.408-6.937h-3.456v6.937h-2.016Zm2.016-8.521h3.264c1.297,0,2.24-.312,2.832-.936.592-.624.889-1.424.889-2.4,0-.992-.293-1.779-.876-2.364-.584-.584-1.54-.876-2.868-.876h-3.24v6.576Z"/><path class="cls-9" d="m93.286,17.089L99.479.288h2.136l6.168,16.801h-2.136l-1.535-4.32h-7.152l-1.56,4.32h-2.112Zm4.272-5.952h5.952l-2.976-8.305-2.977,8.305Z"/><path class="cls-9" d="m115.415,17.089L109.103.288h2.185l5.304,14.664L121.943.288h2.135l-6.312,16.801h-2.352Z"/><path class="cls-9" d="m128.782,17.089V.288h10.392v1.656h-8.375v5.856h7.656v1.632h-7.656v6h8.375v1.656h-10.392Z"/><path class="cls-9" d="m153.479,17.089V.288h5.424c1.312,0,2.384.217,3.216.648.833.432,1.448,1.024,1.849,1.776.4.752.6,1.584.6,2.496,0,1.056-.284,2.008-.851,2.855-.568.849-1.452,1.448-2.652,1.8l3.672,7.225h-2.375l-3.408-6.937h-3.457v6.937h-2.016Zm2.016-8.521h3.265c1.296,0,2.239-.312,2.831-.936.592-.624.889-1.424.889-2.4,0-.992-.293-1.779-.877-2.364-.583-.584-1.539-.876-2.867-.876h-3.24v6.576Z"/><path class="cls-9" d="m177.742,17.377c-1.648,0-3.093-.364-4.332-1.093-1.24-.728-2.209-1.748-2.904-3.06-.695-1.312-1.044-2.824-1.044-4.536s.349-3.22,1.044-4.524c.695-1.304,1.664-2.323,2.904-3.06,1.239-.735,2.684-1.105,4.332-1.105,1.664,0,3.116.369,4.356,1.105,1.24.736,2.204,1.756,2.893,3.06.688,1.305,1.032,2.812,1.032,4.524s-.345,3.225-1.032,4.536c-.689,1.312-1.652,2.332-2.893,3.06-1.239.729-2.691,1.093-4.356,1.093Zm0-1.776c1.232,0,2.316-.276,3.252-.828.935-.552,1.664-1.344,2.184-2.376.519-1.032.781-2.268.781-3.708s-.262-2.672-.781-3.696c-.52-1.023-1.248-1.812-2.184-2.363-.936-.553-2.02-.828-3.252-.828s-2.316.275-3.252.828c-.936.552-1.664,1.34-2.185,2.363-.52,1.024-.779,2.257-.779,3.696s.259,2.676.779,3.708c.521,1.032,1.249,1.824,2.185,2.376.935.552,2.019.828,3.252.828Z"/><path class="cls-9" d="m189.07,17.089L195.263.288h2.136l6.168,16.801h-2.136l-1.536-4.32h-7.152l-1.56,4.32h-2.111Zm4.271-5.952h5.952l-2.976-8.305-2.977,8.305Z"/><path class="cls-9" d="m208.461,17.089V.288h5.161c2.96,0,5.14.753,6.54,2.257,1.399,1.504,2.1,3.567,2.1,6.191,0,2.576-.7,4.612-2.1,6.108-1.4,1.496-3.58,2.244-6.54,2.244h-5.161Zm2.017-1.681h3.097c1.632,0,2.932-.268,3.899-.804.968-.536,1.66-1.304,2.077-2.304.414-1,.623-2.188.623-3.564,0-1.407-.209-2.616-.623-3.624-.417-1.008-1.109-1.783-2.077-2.328-.968-.543-2.268-.815-3.899-.815h-3.097v13.439Z"/></symbol><symbol id="road_StamfordRd" viewBox="0 0 221.303 17.377"><path class="cls-9" d="m6.072,17.377c-1.232,0-2.305-.225-3.216-.673-.912-.447-1.616-1.071-2.112-1.872-.496-.8-.744-1.728-.744-2.784h2.112c0,.656.151,1.261.456,1.812.304.552.748.992,1.332,1.32.584.328,1.309.492,2.172.492,1.137,0,2.016-.272,2.641-.816.623-.544.936-1.224.936-2.04,0-.672-.145-1.212-.432-1.62-.289-.408-.677-.739-1.164-.996-.488-.256-1.049-.479-1.681-.672-.632-.192-1.292-.408-1.979-.647-1.296-.448-2.256-1.005-2.88-1.668-.624-.664-.936-1.532-.936-2.604-.016-.896.191-1.692.625-2.388.432-.696,1.043-1.24,1.835-1.633.792-.392,1.731-.588,2.82-.588,1.071,0,2.004.201,2.796.601s1.408.952,1.848,1.655c.439.705.668,1.505.685,2.4h-2.112c0-.464-.12-.924-.359-1.38-.24-.456-.604-.828-1.093-1.116-.488-.288-1.101-.432-1.835-.432-.913-.016-1.661.216-2.245.696-.584.479-.876,1.144-.876,1.991,0,.721.204,1.272.612,1.656s.98.7,1.716.948,1.584.532,2.544.852c.8.288,1.521.624,2.16,1.009.64.384,1.14.88,1.5,1.487.36.608.54,1.384.54,2.328,0,.801-.208,1.557-.624,2.269-.416.712-1.044,1.292-1.884,1.739-.84.448-1.893.673-3.156.673Z"/><path class="cls-9" d="m20.52,17.088V1.944h-5.016V.288h12.048v1.656h-5.016v15.144h-2.017Z"/><path class="cls-9" d="m29.473,17.088L35.664.288h2.137l6.168,16.8h-2.137l-1.535-4.319h-7.152l-1.561,4.319h-2.111Zm4.272-5.951h5.952l-2.976-8.305-2.976,8.305Z"/><path class="cls-9" d="m48.863,17.088V.288h2.353l6.048,11.712L63.264.288h2.376v16.8h-2.017V3.889l-5.615,10.8h-1.512l-5.616-10.776v13.176h-2.017Z"/><path class="cls-9" d="m71.592,17.088V.288h10.224v1.656h-8.208v5.904h6.984v1.632h-6.984v7.607h-2.016Z"/><path class="cls-9" d="m94.439,17.377c-1.648,0-3.092-.364-4.332-1.093-1.24-.728-2.209-1.748-2.904-3.06-.695-1.312-1.044-2.824-1.044-4.536s.349-3.22,1.044-4.524c.695-1.304,1.664-2.323,2.904-3.06,1.24-.735,2.684-1.105,4.332-1.105,1.664,0,3.115.369,4.356,1.105,1.24.736,2.204,1.756,2.893,3.06.688,1.305,1.031,2.812,1.031,4.524s-.344,3.224-1.031,4.536c-.688,1.312-1.652,2.332-2.893,3.06-1.24.729-2.691,1.093-4.356,1.093Zm0-1.776c1.232,0,2.316-.276,3.252-.828.936-.552,1.664-1.344,2.184-2.376.52-1.032.78-2.269.78-3.708s-.261-2.672-.78-3.696c-.52-1.023-1.248-1.812-2.184-2.364-.935-.552-2.02-.827-3.252-.827s-2.316.275-3.252.827c-.936.553-1.664,1.341-2.185,2.364-.52,1.024-.78,2.256-.78,3.696s.261,2.676.78,3.708c.52,1.032,1.249,1.824,2.185,2.376.936.552,2.02.828,3.252.828Z"/><path class="cls-9" d="m108.023,17.088V.288h5.424c1.312,0,2.384.217,3.216.648s1.448,1.023,1.849,1.776c.399.752.6,1.583.6,2.496,0,1.056-.284,2.008-.852,2.855-.568.848-1.452,1.448-2.652,1.8l3.672,7.224h-2.376l-3.408-6.936h-3.456v6.936h-2.016Zm2.016-8.52h3.264c1.297,0,2.24-.312,2.832-.936.592-.625.889-1.424.889-2.4,0-.992-.293-1.78-.876-2.364-.585-.584-1.54-.876-2.868-.876h-3.24v6.576Z"/><path class="cls-9" d="m124.654,17.088V.288h5.16c2.961,0,5.141.752,6.541,2.257,1.399,1.504,2.1,3.567,2.1,6.191,0,2.576-.7,4.612-2.1,6.108-1.4,1.496-3.58,2.243-6.541,2.243h-5.16Zm2.017-1.68h3.097c1.631,0,2.932-.268,3.899-.804.968-.536,1.659-1.304,2.076-2.304.415-1,.624-2.188.624-3.564,0-1.407-.209-2.616-.624-3.624-.417-1.008-1.108-1.783-2.076-2.328-.968-.543-2.269-.815-3.899-.815h-3.097v13.439Z"/><path class="cls-9" d="m152.519,17.088V.288h5.425c1.311,0,2.383.217,3.216.648.831.432,1.447,1.023,1.848,1.776.399.752.601,1.583.601,2.496,0,1.056-.285,2.008-.853,2.855-.568.848-1.452,1.448-2.651,1.8l3.672,7.224h-2.377l-3.407-6.936h-3.456v6.936h-2.017Zm2.017-8.52h3.264c1.296,0,2.24-.312,2.832-.936.592-.625.888-1.424.888-2.4,0-.992-.292-1.78-.876-2.364-.584-.584-1.54-.876-2.867-.876h-3.24v6.576Z"/><path class="cls-9" d="m176.782,17.377c-1.648,0-3.093-.364-4.331-1.093-1.24-.728-2.209-1.748-2.904-3.06-.696-1.312-1.045-2.824-1.045-4.536s.349-3.22,1.045-4.524c.695-1.304,1.664-2.323,2.904-3.06,1.238-.735,2.684-1.105,4.331-1.105,1.664,0,3.116.369,4.356,1.105,1.239.736,2.203,1.756,2.893,3.06.688,1.305,1.031,2.812,1.031,4.524s-.344,3.224-1.031,4.536c-.689,1.312-1.653,2.332-2.893,3.06-1.24.729-2.692,1.093-4.356,1.093Zm0-1.776c1.231,0,2.316-.276,3.253-.828.936-.552,1.663-1.344,2.184-2.376.52-1.032.779-2.269.779-3.708s-.26-2.672-.779-3.696c-.52-1.023-1.248-1.812-2.184-2.364-.936-.552-2.021-.827-3.253-.827s-2.315.275-3.251.827c-.938.553-1.665,1.341-2.185,2.364-.521,1.024-.78,2.256-.78,3.696s.26,2.676.78,3.708c.519,1.032,1.247,1.824,2.185,2.376.936.552,2.02.828,3.251.828Z"/><path class="cls-9" d="m188.111,17.088L194.303.288h2.137l6.168,16.8h-2.137l-1.536-4.319h-7.151l-1.561,4.319h-2.111Zm4.271-5.951h5.952l-2.976-8.305-2.977,8.305Z"/><path class="cls-9" d="m207.502,17.088V.288h5.16c2.961,0,5.141.752,6.541,2.257,1.399,1.504,2.1,3.567,2.1,6.191,0,2.576-.7,4.612-2.1,6.108-1.4,1.496-3.58,2.243-6.541,2.243h-5.16Zm2.017-1.68h3.096c1.632,0,2.933-.268,3.9-.804.968-.536,1.659-1.304,2.075-2.304s.625-2.188.625-3.564c0-1.407-.209-2.616-.625-3.624s-1.107-1.783-2.075-2.328c-.968-.543-2.269-.815-3.9-.815h-3.096v13.439Z"/></symbol><symbol id="road_StationRd" viewBox="0 0 188.471 17.377"><path class="cls-9" d="m6.071,17.377c-1.232,0-2.303-.225-3.215-.673-.912-.447-1.617-1.071-2.113-1.872-.496-.799-.743-1.728-.743-2.784h2.112c0,.656.151,1.261.455,1.812.305.552.748.992,1.332,1.32.584.327,1.309.492,2.172.492,1.137,0,2.017-.272,2.641-.816.624-.544.935-1.224.935-2.04,0-.672-.143-1.212-.432-1.62-.288-.407-.676-.739-1.164-.996-.488-.255-1.049-.479-1.68-.672-.633-.192-1.293-.407-1.98-.647-1.296-.448-2.256-1.005-2.88-1.668-.624-.664-.937-1.532-.937-2.604-.016-.896.193-1.691.625-2.388.432-.696,1.043-1.24,1.836-1.633.791-.392,1.731-.588,2.82-.588,1.071,0,2.004.201,2.795.601.793.399,1.408.952,1.849,1.655.44.704.667,1.505.685,2.4h-2.113c0-.464-.119-.924-.359-1.38-.24-.456-.604-.828-1.092-1.116-.488-.288-1.101-.432-1.836-.432-.912-.016-1.66.216-2.244.696-.584.479-.877,1.144-.877,1.992,0,.719.205,1.271.613,1.655.408.385.979.7,1.715.948.736.248,1.584.532,2.545.852.799.288,1.52.624,2.16,1.009.639.384,1.14.88,1.5,1.487.359.608.539,1.384.539,2.328,0,.801-.207,1.556-.623,2.269-.416.711-1.045,1.292-1.885,1.739-.84.448-1.893.673-3.156.673Z"/><path class="cls-9" d="m20.52,17.088V1.944h-5.017V.289h12.049v1.655h-5.016v15.144h-2.017Z"/><path class="cls-9" d="m29.472,17.088L35.663.289h2.137l6.168,16.799h-2.137l-1.535-4.319h-7.152l-1.56,4.319h-2.111Zm4.272-5.952h5.953l-2.976-8.304-2.977,8.304Z"/><path class="cls-9" d="m50.903,17.088V1.944h-5.016V.289h12.048v1.655h-5.017v15.144h-2.016Z"/><path class="cls-9" d="m62.808,17.088V.289h2.016v16.799h-2.016Z"/><path class="cls-9" d="m78.407,17.377c-1.649,0-3.092-.364-4.332-1.093-1.24-.728-2.208-1.748-2.904-3.06-.695-1.312-1.043-2.824-1.043-4.536s.348-3.22,1.043-4.524c.696-1.304,1.664-2.323,2.904-3.06,1.24-.735,2.684-1.105,4.332-1.105,1.664,0,3.115.369,4.355,1.105,1.24.736,2.205,1.756,2.893,3.06.688,1.305,1.031,2.812,1.031,4.524s-.344,3.224-1.031,4.536c-.688,1.312-1.652,2.332-2.893,3.06-1.24.729-2.691,1.093-4.355,1.093Zm0-1.776c1.232,0,2.316-.276,3.252-.828.936-.552,1.664-1.344,2.184-2.376.52-1.032.781-2.269.781-3.708s-.262-2.672-.781-3.696c-.519-1.023-1.248-1.812-2.184-2.364-.935-.552-2.019-.827-3.252-.827s-2.316.275-3.252.827c-.935.553-1.664,1.341-2.184,2.364-.52,1.024-.78,2.257-.78,3.696s.26,2.676.78,3.708c.52,1.032,1.248,1.824,2.184,2.376.936.552,2.02.828,3.252.828Z"/><path class="cls-9" d="m91.991,17.088V.289h2.016l8.953,13.463V.289h2.016v16.799h-2.016l-8.953-13.463v13.463h-2.016Z"/><path class="cls-9" d="m119.687,17.088V.289h5.424c1.312,0,2.385.216,3.217.647s1.447,1.023,1.848,1.776c.4.752.6,1.583.6,2.496,0,1.055-.283,2.007-.852,2.855-.568.848-1.451,1.448-2.652,1.8l3.672,7.224h-2.375l-3.408-6.936h-3.456v6.936h-2.017Zm2.017-8.52h3.265c1.295,0,2.239-.312,2.831-.936.592-.625.888-1.424.888-2.4,0-.991-.291-1.78-.875-2.364-.584-.584-1.541-.876-2.869-.876h-3.239v6.576Z"/><path class="cls-9" d="m143.95,17.377c-1.647,0-3.092-.364-4.332-1.093-1.24-.728-2.207-1.748-2.903-3.06-.696-1.312-1.044-2.824-1.044-4.536s.348-3.22,1.044-4.524c.696-1.304,1.663-2.323,2.903-3.06,1.24-.735,2.685-1.105,4.332-1.105,1.664,0,3.117.369,4.356,1.105,1.239.736,2.204,1.756,2.892,3.06.688,1.305,1.033,2.812,1.033,4.524s-.346,3.224-1.033,4.536c-.688,1.312-1.652,2.332-2.892,3.06-1.239.729-2.692,1.093-4.356,1.093Zm0-1.776c1.233,0,2.316-.276,3.252-.828.936-.552,1.664-1.344,2.185-2.376.521-1.032.78-2.269.78-3.708s-.26-2.672-.78-3.696c-.52-1.023-1.248-1.812-2.185-2.364-.936-.552-2.02-.827-3.252-.827s-2.315.275-3.252.827c-.936.553-1.664,1.341-2.184,2.364-.52,1.024-.779,2.257-.779,3.696s.26,2.676.779,3.708c.519,1.032,1.248,1.824,2.184,2.376.936.552,2.019.828,3.252.828Z"/><path class="cls-9" d="m155.278,17.088L161.472.289h2.135l6.168,16.799h-2.135l-1.537-4.319h-7.152l-1.559,4.319h-2.113Zm4.272-5.952h5.952l-2.977-8.304-2.976,8.304Z"/><path class="cls-9" d="m174.671,17.088V.289h5.16c2.959,0,5.139.751,6.539,2.256,1.4,1.503,2.101,3.567,2.101,6.191,0,2.576-.7,4.612-2.101,6.107-1.4,1.497-3.58,2.244-6.539,2.244h-5.16Zm2.016-1.68h3.096c1.633,0,2.932-.268,3.9-.804.968-.536,1.66-1.304,2.076-2.304.416-1,.624-2.188.624-3.564,0-1.407-.208-2.615-.624-3.624-.416-1.008-1.108-1.783-2.076-2.328-.969-.543-2.268-.815-3.9-.815h-3.096v13.439Z"/></symbol><filter id="MapShadow"><feFlood flood-color="#000000" flood-opacity="0.3" result="colour"/><feComposite in="colour" in2="SourceGraphic" operator="in" result="colourComp"/><feGaussianBlur in="colourComp" result="blur" stdDeviation="4"/><feOffset dx="0" dy="4" result="offset"/><feComposite in="SourceGraphic" in2="offset"/></filter><filter id="DestShadow"><feFlood flood-color="#000000" flood-opacity="0.15" result="colour"/><feComposite in="colour" in2="SourceGraphic" operator="in" result="colourComp"/><feGaussianBlur in="colourComp" result="blur" stdDeviation="3"/><feOffset dx="0" dy="3" result="offset"/><feComposite in="SourceGraphic" in2="offset"/></filter></defs><g id="WEB_Map_Shadow"><g id="mapShadow_lv3"><g class="cls-14"><polygon class="cls-4" points="2046.145 965.223 2007.305 881.93 1976.684 896.125 1954.273 846.403 1551.398 846.403 1551.398 816.946 1502.719 816.946 1502.719 839.355 1426.715 839.355 1426.715 853.559 1027.27 853.559 1027.27 797.523 901.219 797.523 901.219 853.559 535.703 853.559 535.703 716.102 240.793 716.102 240.793 1149.359 372.633 1149.359 372.633 1280.706 254.25 1280.706 254.25 1362.5 231.605 1362.5 231.605 1611.306 649.902 1611.306 649.902 1294.256 649.902 1289.04 1950.16 1289.04 1950.16 1097.812 2046.047 1057.477 2012.539 982.027 2046.145 965.223"/></g></g></g><g id="WEB_Floor"><polygon class="cls-13" points="1551.398 816.946 1551.398 846.403 1954.273 846.403 1976.684 896.125 2007.305 881.93 2046.145 965.223 2012.539 982.027 2046.047 1057.477 1950.16 1097.812 1950.16 1289.04 372.633 1289.04 372.633 1149.359 240.793 1149.359 240.793 716.102 535.703 716.102 535.703 853.559 901.219 853.559 901.219 797.523 1027.27 797.523 1027.27 853.559 1426.715 853.559 1426.715 839.355 1502.719 839.355 1502.719 816.946 1551.398 816.946"/></g><g id="WEB_Parking"><polygon class="cls-8" points="254.25 1362.5 231.605 1362.5 231.605 1611.306 649.902 1611.306 649.902 1294.256 649.902 1294.256 649.902 1289.04 615.812 1289.04 615.812 1280.706 254.25 1280.706 254.25 1362.5"/></g><g id="WEB_Dest_Shadow"><g id="mapDestShadow_lv3"><g class="cls-1"><rect class="cls-7" x="1698.555" y="938.98" width="27.234" height="22.752"/><path class="cls-7" d="m1775.613,970.167c5.121,0,9.269-4.15,9.269-9.267v-9.354c0-5.119-2.894-9.27-9.269-9.27-.992,0-1.926.197-2.824.486-1.734-2.722-4.762-4.536-8.227-4.536-5.395,0-9.77,4.373-9.77,9.77s4.375,9.77,9.77,9.77c.613,0,1.203-.073,1.781-.178v3.311c0,5.117,4.152,9.267,9.27,9.267Z"/><polygon class="cls-7" points="1410.844 940.195 1426.715 926.374 1430.641 931.23 1436.242 931.23 1453.051 911.812 1471.352 911.812 1475.832 906.953 1551.398 906.953 1562.855 919.656 1682.746 919.656 1682.746 846.403 1551.398 846.403 1551.398 816.946 1502.719 816.946 1502.719 839.355 1426.715 839.355 1426.715 853.559 1326.434 853.559 1326.434 867.758 1313.934 867.758 1313.934 886.021 1289.457 886.021 1289.457 853.559 1214.77 853.559 1214.77 932.915 1224.855 940.195 1410.844 940.195"/><polygon class="cls-7" points="980.59 935.374 1000.383 931.98 1022.047 931.98 1048.938 931.98 1079.941 931.98 1104.961 931.98 1108.789 931.98 1115.793 929.18 1127.992 929.18 1152.77 929.18 1160.613 929.18 1174.805 940.195 1178.715 940.195 1178.719 940.195 1195.719 940.195 1202.441 932.98 1202.445 882.778 1178.719 882.774 1178.719 853.559 1127.992 853.559 1104.961 853.559 1057.898 853.559 1027.27 853.559 1027.27 797.523 901.219 797.523 901.219 853.559 590.66 853.559 573.477 853.559 573.477 929.367 579.832 935.374 590.66 935.374 907.383 935.374 925.188 935.374 939.129 935.374 974.609 935.374 980.59 935.374"/><polygon class="cls-7" points="1850.07 955.656 1990.773 955.656 2001.352 950.862 1954.273 846.403 1850.07 846.403 1716.172 846.403 1716.172 857.139 1692.621 857.139 1692.621 919.656 1850.07 919.656 1850.07 955.656"/><polygon class="cls-7" points="535.703 1000.331 535.703 716.102 240.793 716.102 240.793 1149.359 372.633 1149.359 372.633 1280.706 615.812 1280.706 615.812 1142.655 615.812 1117.243 584.125 1117.243 535.703 1117.243 535.703 1096.844 603.359 1096.844 603.359 1091.837 615.812 1080.258 615.812 1015.734 600 1000.331 535.703 1000.331"/><rect class="cls-7" x="1362.664" y="996.965" width="42.207" height="25.774"/><rect class="cls-7" x="1252.859" y="960.125" width="20.543" height="13.446"/><rect class="cls-7" x="1383.129" y="960.125" width="20.543" height="13.446"/><rect class="cls-7" x="1181.148" y="959.005" width="18.672" height="14.566"/><rect class="cls-7" x="972.566" y="955.403" width="25.398" height="20.914"/><rect class="cls-7" x="911.484" y="955.403" width="25.398" height="20.914"/><polygon class="cls-7" points="1039.973 976.314 1063.336 976.314 1063.336 972.4 1068.355 972 1068.355 955.403 1039.973 955.403 1039.973 976.314"/><polygon class="cls-7" points="2000.211 982.027 1919 982.027 1919 1044.398 1872.848 1044.398 1872.848 1006.036 1886.82 1006.036 1886.82 1014.11 1909.074 1014.11 1909.074 982.027 1872.848 982.027 1816.074 982.027 1816.074 1002.195 1796.656 1002.195 1796.656 1032.079 1807.859 1044.398 1649.496 1044.398 1649.496 1032.079 1632.316 1016.762 1551.645 1016.762 1546.789 1020.867 1490.766 1020.867 1475.824 1034.688 1475.824 1074.278 1438.102 1074.278 1404.488 1061.206 1327.93 1061.206 1327.93 1000.704 942.809 1000.704 942.809 1069.334 942.809 1112.469 991.668 1112.469 991.668 1226.667 942.809 1226.667 942.809 1289.04 1105.516 1289.04 1552.766 1289.04 1950.16 1289.04 1950.16 1044.398 1950.16 1030.206 1968.086 1030.206 2010.293 1012.278 2000.211 982.027"/><rect class="cls-7" x="1543.598" y="952.754" width="19.402" height="21"/><rect class="cls-7" x="1650.82" y="954.307" width="21.008" height="19.483"/><polygon class="cls-7" points="665.641 1000.704 649.902 1015.734 649.902 1289.04 893.379 1289.04 893.379 1252.43 920.453 1252.43 920.453 1075.774 920.453 1000.704 665.641 1000.704"/><rect class="cls-6" x="896.054" y="1275.807" width="11.041" height="10.915"/><rect class="cls-6" x="896.054" y="1262.74" width="11.041" height="10.91"/><rect class="cls-6" x="620.055" y="1414.807" width="11.041" height="10.915"/><rect class="cls-6" x="620.055" y="1401.74" width="11.041" height="10.91"/><rect class="cls-6" x="234.251" y="1385.407" width="11.041" height="10.91"/><rect class="cls-6" x="550.027" y="910.576" width="11.041" height="10.914"/><rect class="cls-6" x="550.027" y="897.51" width="11.041" height="10.911"/><polygon class="cls-6" points="1103.635 955.072 1099.022 964.088 1161.195 964.088 1161.199 955.072 1103.635 955.072"/><polygon class="cls-6" points="1161.195 965.686 1098.203 965.686 1093.588 974.705 1161.191 974.705 1161.195 965.686"/><rect class="cls-6" x="1442.691" y="970.684" width="74.537" height="9"/><polygon class="cls-6" points="1442.691 980.901 1442.691 989.901 1517.223 989.901 1517.227 980.915 1517.227 980.901 1442.691 980.901"/><polygon class="cls-6" points="720.633 954.344 769.473 954.344 769.473 963.344 720.633 963.341 720.633 961.676 720.633 954.344"/><polygon class="cls-6" points="777.781 975.393 740.52 975.393 740.52 966.393 777.781 966.395 777.781 968.062 777.781 975.393"/><polygon class="cls-6" points="1489.777 1001.682 1452.512 1001.682 1452.512 992.682 1489.777 992.682 1489.777 994.348 1489.777 1001.682"/><polygon class="cls-6" points="1489.777 939.31 1452.512 939.31 1452.512 930.31 1489.777 930.313 1489.777 931.979 1489.777 939.31"/><rect class="cls-6" x="535.68" y="1097.435" width="80.133" height="9"/><polygon class="cls-6" points="535.68 1107.635 535.68 1116.635 615.812 1116.635 615.812 1107.648 615.812 1107.635 535.68 1107.635"/><rect class="cls-6" x="1445.541" y="1042.149" width="11.041" height="10.91"/><rect class="cls-6" x="1445.541" y="1055.215" width="11.041" height="10.91"/><rect class="cls-6" x="1181.257" y="856.363" width="11.041" height="10.911"/><rect class="cls-6" x="1181.257" y="869.426" width="11.041" height="10.914"/><rect class="cls-10" x="942.809" y="1112.469" width="48.859" height="114.198"/><polygon class="cls-10" points="1968.086 1030.206 1950.16 1030.206 1950.16 1044.398 1950.16 1097.812 2046.047 1057.477 2023.484 1006.674 1968.086 1030.206"/></g></g></g><g id="Dests_Store_NA"><polygon class="cls-11" points="754.375 1276.706 754.375 1268.16 770.309 1268.16 770.309 1168.254 759.148 1168.254 759.148 1254.754 685.012 1254.754 685.012 1289.04 737.949 1289.04 737.949 1276.706 754.375 1276.706"/></g><g id="WEB_Toilets"><rect class="cls-10" x="942.809" y="1112.469" width="48.859" height="114.198"/><polygon class="cls-10" points="1968.086 1030.206 1950.16 1030.206 1950.16 1044.398 1950.16 1097.812 2046.047 1057.477 2023.484 1006.674 1968.086 1030.206"/></g><g id="Stores_Dests"><use id="dest_1002-2" width="48.68" height="90.008" transform="translate(1502.72 816.946)" xlink:href="#dest_1002"/><use id="dest_1003-2" width="36.417" height="67.6" transform="translate(1475.833 839.352)" xlink:href="#dest_1003"/><use id="dest_1004-2" width="22.781" height="72.456" transform="translate(1453.051 839.355)" xlink:href="#dest_1004"/><use id="dest_1005-2" width="26.336" height="91.875" transform="translate(1426.715 839.355)" xlink:href="#dest_1005"/><use id="dest_1005A-2" width="27.073" height="72.084" transform="translate(1399.642 868.114)" xlink:href="#dest_1005A"/><use id="dest_1006-2" width="63.678" height="86.639" transform="translate(1363.036 853.559)" xlink:href="#dest_1006"/><use id="dest_1007-2" width="36.602" height="86.639" transform="translate(1326.435 853.559)" xlink:href="#dest_1007"/><use id="dest_1009-2" width="36.977" height="72.439" transform="translate(1289.457 867.758)" xlink:href="#dest_1009"/><use id="dest_1010-2" width="33.987" height="86.639" transform="translate(1255.47 853.559)" xlink:href="#dest_1010"/><use id="dest_1011-2" width="40.699" height="86.639" transform="translate(1214.772 853.559)" xlink:href="#dest_1011"/><use id="dest_1013-2" width="23.724" height="57.419" transform="translate(1178.719 882.776)" xlink:href="#dest_1013"/><use id="dest_1014-2" width="50.725" height="86.639" transform="translate(1127.995 853.559)" xlink:href="#dest_1014"/><use id="dest_1015-2" width="24.775" height="37.162" transform="translate(1127.991 892.018)" xlink:href="#dest_1015"/><use id="dest_1016-2" width="23.031" height="78.423" transform="translate(1104.961 853.559)" xlink:href="#dest_1016"/><use id="dest_1017-2" width="25.021" height="41.083" transform="translate(1079.938 890.896)" xlink:href="#dest_1017"/><use id="dest_1018-2" width="56.023" height="78.423" transform="translate(1048.936 853.557)" xlink:href="#dest_1018"/><use id="dest_1019A-2" width="35.852" height="78.422" transform="translate(1022.048 853.559)" xlink:href="#dest_1019A"/><use id="dest_1019-2" width="126.048" height="137.848" transform="translate(901.219 797.525)" xlink:href="#dest_1019"/><use id="dest_1020-2" width="49.422" height="71.619" transform="translate(925.186 863.757)" xlink:href="#dest_1020"/><use id="dest_1021A-2" width="13.943" height="34.77" transform="translate(925.189 900.604)" xlink:href="#dest_1021A"/><use id="dest_1021B-2" width="23.967" height="71.619" transform="translate(901.219 863.757)" xlink:href="#dest_1021B"/><use id="dest_1022-2" width="55.65" height="81.817" transform="translate(851.733 853.556)" xlink:href="#dest_1022"/><use id="dest_1024-2" width="35.854" height="81.817" transform="translate(815.878 853.556)" xlink:href="#dest_1024"/><use id="dest_1029-3" width="79.168" height="81.816" transform="translate(650.791 853.559)" xlink:href="#dest_1029"/><use id="dest_1027-3" width="66.484" height="81.816" transform="translate(697.852 853.559)" xlink:href="#dest_1027"/><use id="dest_1025-3" width="45.566" height="81.816" transform="translate(770.311 853.559)" xlink:href="#dest_1025"/><use id="dest_1026-3" width="33.836" height="81.816" transform="translate(755.527 853.559)" xlink:href="#dest_1026"/><use id="dest_1030-2" width="30.621" height="81.817" transform="translate(620.17 853.556)" xlink:href="#dest_1030"/><use id="dest_1031-2" width="29.51" height="81.817" transform="translate(590.659 853.556)" xlink:href="#dest_1031"/><use id="dest_1031A-2" width="17.182" height="81.817" transform="translate(573.479 853.556)" xlink:href="#dest_1031A"/><use id="dest_1067-2" width="51.419" height="73.251" transform="translate(1551.399 846.405)" xlink:href="#dest_1067"/><g id="dest_1065"><use id="dest_1065B-2" width="25.947" height="73.254" transform="translate(1656.801 846.403)" xlink:href="#dest_1065B"/><use id="dest_1065A-2" width="53.98" height="73.254" transform="translate(1602.818 846.403)" xlink:href="#dest_1065A"/><use id="dest_1062-2" width="53.969" height="73.254" transform="translate(1796.102 846.403)" xlink:href="#dest_1062"/><use id="dest_1057A-2" width="53.414" height="42.203" transform="translate(1796.656 1002.195)" xlink:href="#dest_1057A"/><use id="dest_1057B-2" width="56.773" height="62.371" transform="translate(1816.074 982.027)" xlink:href="#dest_1057B"/><use id="dest_1063_64-2" width="103.478" height="73.254" transform="translate(1692.623 846.403)" xlink:href="#dest_1063_64"/><use id="dest_K113-3" width="19.4" height="21" transform="translate(1543.6 952.754)" xlink:href="#dest_K113"/><use id="dest_K111-2" width="21.006" height="19.482" transform="translate(1650.822 954.307)" xlink:href="#dest_K111"/><use id="dest_K112-2" width="27.236" height="22.752" transform="translate(1698.555 938.98)" xlink:href="#dest_K112"/><use id="dest_1060-2" width="151.281" height="109.254" transform="translate(1850.07 846.403)" xlink:href="#dest_1060"/><path class="cls-7" d="m1775.613,942.278c-.992,0-1.926.197-2.824.486-1.734-2.722-4.762-4.536-8.227-4.536-5.395,0-9.77,4.373-9.77,9.77s4.375,9.77,9.77,9.77c.613,0,1.203-.073,1.781-.178v3.311c0,5.117,4.152,9.267,9.27,9.267s9.269-4.15,9.269-9.267v-9.354c0-5.119-2.894-9.27-9.269-9.27Z"/><use id="dest_1058-2" width="36.227" height="32.082" transform="translate(1872.848 982.028)" xlink:href="#dest_1058"/></g><use id="dest_K103-3" width="20.541" height="13.445" transform="translate(1252.858 960.125)" xlink:href="#dest_K103"/><use id="dest_K102-2" width="20.543" height="13.445" transform="translate(1383.127 960.123)" xlink:href="#dest_K102"/><use id="dest_K104-2" width="18.675" height="14.565" transform="translate(1181.146 959.006)" xlink:href="#dest_K104"/><use id="dest_K107-2" width="25.396" height="20.912" transform="translate(972.567 955.403)" xlink:href="#dest_K107"/><use id="dest_K108-3" width="25.398" height="20.914" transform="translate(911.484 955.402)" xlink:href="#dest_K108"/><use id="dest_1032A-2" width="37.779" height="38.844" transform="translate(535.704 1000.332)" xlink:href="#dest_1032A"/><use id="dest_1032B-2" width="42.331" height="48.552" transform="translate(573.484 1000.329)" xlink:href="#dest_1032B"/><use id="dest_1032-2" width="80.133" height="57.666" transform="translate(535.68 1039.175)" xlink:href="#dest_1032"/><use id="dest_1034A-2" width="120.309" height="37.85" transform="translate(649.903 1075.774)" xlink:href="#dest_1034A"/><use id="dest_1034-2" width="41.636" height="28.385" transform="translate(649.906 1047.389)" xlink:href="#dest_1034"/><use id="dest_1036-2" width="38.991" height="75.071" transform="translate(691.541 1000.704)" xlink:href="#dest_1036"/><use id="dest_1037-2" width="39.682" height="75.071" transform="translate(730.533 1000.704)" xlink:href="#dest_1037"/><use id="dest_1038-2" width="25.243" height="75.071" transform="translate(770.216 1000.704)" xlink:href="#dest_1038"/><use id="dest_1039-2" width="24.898" height="38.841" transform="translate(795.458 1000.703)" xlink:href="#dest_1039"/><use id="dest_1042-2" width="46.684" height="75.071" transform="translate(873.768 1000.704)" xlink:href="#dest_1042"/><use id="dest_MM3-2" width="162.705" height="288.332" transform="translate(942.812 1000.706)" xlink:href="#dest_MM3"/><use id="dest_1047-2" width="49.115" height="60.503" transform="translate(1068.354 1000.702)" xlink:href="#dest_1047"/><use id="dest_1043-2" width="48.859" height="43.135" transform="translate(942.809 1069.335)" xlink:href="#dest_1043"/><use id="dest_1044-2" width="48.859" height="68.631" transform="translate(942.809 1000.704)" xlink:href="#dest_1044"/><use id="dest_1048-2" width="24.089" height="60.503" transform="translate(1117.47 1000.702)" xlink:href="#dest_1048"/><use id="dest_1049-2" width="37.908" height="60.503" transform="translate(1141.558 1000.702)" xlink:href="#dest_1049"/><use id="dest_1050-2" width="36.414" height="60.503" transform="translate(1179.469 1000.702)" xlink:href="#dest_1050"/><use id="dest_1051-2" width="37.347" height="60.503" transform="translate(1215.883 1000.702)" xlink:href="#dest_1051"/><use id="dest_1052-2" width="36.792" height="60.503" transform="translate(1253.229 1000.702)" xlink:href="#dest_1052"/><use id="dest_1052A-2" width="37.906" height="60.503" transform="translate(1290.021 1000.702)" xlink:href="#dest_1052A"/><use id="dest_K115-2" width="42.206" height="25.771" transform="translate(1362.665 996.966)" xlink:href="#dest_K115"/><use id="dest_SM1-2" width="447.25" height="227.832" transform="translate(1105.516 1061.208)" xlink:href="#dest_SM1"/><use id="dest_1053-2" width="70.965" height="53.409" transform="translate(1475.822 1020.868)" xlink:href="#dest_1053"/><use id="dest_1055-2" width="102.709" height="57.514" transform="translate(1546.786 1016.766)" xlink:href="#dest_1055"/><use id="dest_SM2-2" width="435.865" height="244.639" transform="translate(1514.295 1044.4)" xlink:href="#dest_SM2"/><use id="dest_1059-2" width="91.291" height="62.371" transform="translate(1919 982.029)" xlink:href="#dest_1059"/><use id="dest_DDS2-2" width="294.908" height="433.252" transform="translate(240.794 716.104)" xlink:href="#dest_DDS2"/><use id="dest_1035-2" width="41.636" height="46.685" transform="translate(649.906 1000.706)" xlink:href="#dest_1035"/><use id="dest_1040-3" width="182.504" height="288.336" transform="translate(737.947 1000.704)" xlink:href="#dest_1040"/><g id="dest_MM2B-2"><use id="dest_MM1-3" width="243.179" height="163.465" transform="translate(372.634 1117.242)" xlink:href="#dest_MM1"/><use id="dest_1033-3" width="31.688" height="25.412" transform="translate(584.125 1117.243)" xlink:href="#dest_1033"/><use id="dest_MM2A-2" width="143.563" height="68.324" transform="translate(649.902 1113.625)" xlink:href="#dest_MM2A"/><use id="dest_MM2B-3" width="109.248" height="120.785" transform="translate(649.902 1168.254)" xlink:href="#dest_MM2B"/></g><use id="dest_K105-3" width="28.381" height="20.912" transform="translate(1039.975 955.403)" xlink:href="#dest_K105"/><use id="dest_Santa-2" width="74.637" height="23.488" transform="translate(1442.691 946.586)" xlink:href="#dest_Santa"/></g><g id="WEB_Esc_Lift_Trav_Stairs"><rect class="cls-6" x="896.054" y="1275.807" width="11.041" height="10.915"/><rect class="cls-6" x="896.054" y="1262.74" width="11.041" height="10.91"/><rect class="cls-6" x="620.055" y="1414.807" width="11.041" height="10.915"/><rect class="cls-6" x="620.055" y="1401.74" width="11.041" height="10.91"/><rect class="cls-6" x="234.251" y="1385.407" width="11.041" height="10.91"/><rect class="cls-6" x="550.027" y="910.576" width="11.041" height="10.914"/><rect class="cls-6" x="550.027" y="897.51" width="11.041" height="10.91"/><polygon class="cls-6" points="1103.635 955.072 1099.022 964.087 1161.195 964.087 1161.199 955.072 1103.635 955.072"/><polygon class="cls-6" points="1161.195 965.686 1098.203 965.686 1093.588 974.706 1161.191 974.706 1161.195 965.686"/><rect class="cls-6" x="1442.691" y="970.684" width="74.537" height="9"/><polygon class="cls-6" points="1442.691 980.901 1442.691 989.901 1517.223 989.901 1517.227 980.915 1517.227 980.901 1442.691 980.901"/><polygon class="cls-6" points="720.633 954.344 769.473 954.344 769.473 963.344 720.633 963.341 720.633 961.676 720.633 954.344"/><polygon class="cls-6" points="777.781 975.393 740.52 975.393 740.52 966.393 777.781 966.395 777.781 968.061 777.781 975.393"/><polygon class="cls-6" points="1489.777 1001.682 1452.512 1001.682 1452.512 992.682 1489.777 992.682 1489.777 994.348 1489.777 1001.682"/><polygon class="cls-6" points="1489.777 939.31 1452.512 939.31 1452.512 930.31 1489.777 930.314 1489.777 931.979 1489.777 939.31"/><rect class="cls-6" x="535.68" y="1097.435" width="80.133" height="9"/><polygon class="cls-6" points="535.68 1107.635 535.68 1116.635 615.812 1116.635 615.812 1107.648 615.812 1107.635 535.68 1107.635"/><rect class="cls-6" x="1445.541" y="1042.149" width="11.041" height="10.91"/><rect class="cls-6" x="1445.541" y="1055.215" width="11.041" height="10.909"/><rect class="cls-6" x="1181.257" y="856.363" width="11.041" height="10.91"/><rect class="cls-6" x="1181.257" y="869.426" width="11.041" height="10.914"/></g><g id="WEB_Icons"><use width="7.305" height="6" transform="translate(1462.512 994.182)" xlink:href="#label_Esc"/><use width="7.305" height="6" transform="translate(1462.512 931.81)" xlink:href="#label_Esc"/><use width="15.195" height="14" transform="translate(961.546 1163.167) scale(.929)" xlink:href="#label_Toilet"/><use width="11.156" height="14" transform="translate(963.422 1119.477) scale(.929)" xlink:href="#label_ToiletAcc"/><use width="9.804" height="14" transform="translate(964.049 1141.323) scale(.929)" xlink:href="#label_ParentsRoom"/><use width="4.31" height="3" transform="translate(599.368 1099.912) scale(1.392)" xlink:href="#label_Trav"/><use width="4.31" height="3" transform="translate(599.368 1110.212) scale(1.392)" xlink:href="#label_Trav"/><use width="4.31" height="3" transform="translate(1500.792 973.086) scale(1.392)" xlink:href="#label_Trav"/><use width="4.31" height="3" transform="translate(1500.792 983.386) scale(1.392)" xlink:href="#label_Trav"/><use width="7.305" height="6" transform="translate(750.52 967.8)" xlink:href="#label_Esc"/><use width="7.305" height="6" transform="translate(751.887 955.8)" xlink:href="#label_Esc"/><use width="4.31" height="3" transform="translate(1145.101 957.651) scale(1.392)" xlink:href="#label_Trav"/><use width="4.31" height="3" transform="translate(1145.101 967.95) scale(1.392)" xlink:href="#label_Trav"/><use width="15.195" height="14" transform="translate(2016.524 1045.582) scale(.929)" xlink:href="#label_Toilet"/><use width="11.156" height="14" transform="translate(2012.777 1022.488) scale(.929)" xlink:href="#label_ToiletAcc"/><use width="9.804" height="14" transform="translate(1990.961 1031.877) scale(.929)" xlink:href="#label_ParentsRoom"/><line class="cls-16" x1="898.032" y1="1271.695" x2="905.116" y2="1264.695"/><line class="cls-16" x1="898.032" y1="1264.695" x2="905.116" y2="1271.695"/><line class="cls-16" x1="898.032" y1="1284.764" x2="905.116" y2="1277.764"/><line class="cls-16" x1="898.032" y1="1277.764" x2="905.116" y2="1284.764"/><line class="cls-16" x1="622.033" y1="1410.695" x2="629.117" y2="1403.695"/><line class="cls-16" x1="622.033" y1="1403.695" x2="629.117" y2="1410.695"/><line class="cls-16" x1="622.033" y1="1423.764" x2="629.117" y2="1416.764"/><line class="cls-16" x1="622.033" y1="1416.764" x2="629.117" y2="1423.764"/><line class="cls-16" x1="236.229" y1="1394.362" x2="243.314" y2="1387.362"/><line class="cls-16" x1="236.229" y1="1387.362" x2="243.314" y2="1394.362"/><line class="cls-16" x1="552.006" y1="906.464" x2="559.09" y2="899.464"/><line class="cls-16" x1="552.006" y1="899.464" x2="559.09" y2="906.464"/><line class="cls-16" x1="552.006" y1="919.533" x2="559.09" y2="912.533"/><line class="cls-16" x1="552.006" y1="912.533" x2="559.09" y2="919.533"/><line class="cls-16" x1="1447.52" y1="1051.103" x2="1454.604" y2="1044.103"/><line class="cls-16" x1="1447.52" y1="1044.103" x2="1454.604" y2="1051.103"/><line class="cls-16" x1="1447.52" y1="1064.17" x2="1454.604" y2="1057.17"/><line class="cls-16" x1="1447.52" y1="1057.17" x2="1454.604" y2="1064.17"/><line class="cls-16" x1="1183.235" y1="865.318" x2="1190.319" y2="858.318"/><line class="cls-16" x1="1183.235" y1="858.318" x2="1190.319" y2="865.318"/><line class="cls-16" x1="1183.235" y1="878.383" x2="1190.319" y2="871.383"/><line class="cls-16" x1="1183.235" y1="871.383" x2="1190.319" y2="878.383"/></g><g id="Outlines"><polygon class="cls-15" points="1551.398 816.946 1551.398 846.403 1954.273 846.403 1976.684 896.125 2007.305 881.93 2046.145 965.223 2012.539 982.027 2046.047 1057.477 1950.16 1097.812 1950.16 1289.04 615.812 1289.04 615.812 1280.706 372.633 1280.706 372.633 1149.359 240.793 1149.359 240.793 716.102 535.703 716.102 535.703 853.559 901.219 853.559 901.219 797.523 1027.27 797.523 1027.27 853.559 1426.715 853.559 1426.715 839.355 1502.719 839.355 1502.719 816.946 1551.398 816.946"/><polygon class="cls-15" points="1551.398 906.953 1551.398 846.403 1602.82 846.403 1602.82 919.656 1562.855 919.656 1551.398 906.953"/><rect class="cls-15" x="1656.801" y="846.403" width="25.945" height="73.253"/><rect class="cls-15" x="1602.82" y="846.403" width="53.981" height="73.253"/><rect class="cls-15" x="1796.102" y="846.403" width="53.969" height="73.253"/><polygon class="cls-15" points="1512.25 906.953 1512.25 839.355 1502.719 839.355 1502.719 816.946 1551.398 816.946 1551.398 906.953 1512.25 906.953"/><rect class="cls-15" x="1475.832" y="839.356" width="36.418" height="67.598"/><polygon class="cls-15" points="1453.051 911.812 1453.051 839.355 1475.832 839.355 1475.832 906.953 1471.352 911.812 1453.051 911.812"/><polygon class="cls-15" points="1426.715 839.355 1426.715 926.374 1430.641 931.23 1436.242 931.23 1453.051 911.812 1453.051 839.355 1426.715 839.355"/><polygon class="cls-15" points="1399.641 940.195 1399.641 868.114 1426.715 868.114 1426.715 926.374 1410.844 940.195 1399.641 940.195"/><polygon class="cls-15" points="1363.035 853.559 1363.035 940.195 1399.641 940.195 1399.641 868.114 1426.715 868.114 1426.715 853.559 1363.035 853.559"/><rect class="cls-15" x="1326.434" y="853.559" width="36.602" height="86.637"/><polygon class="cls-15" points="1313.934 867.758 1313.934 886.021 1289.457 886.021 1289.457 940.195 1326.434 940.195 1326.434 867.758 1313.934 867.758"/><rect class="cls-15" x="1255.469" y="853.559" width="33.988" height="86.637"/><polygon class="cls-15" points="1255.469 940.195 1224.855 940.195 1214.77 932.915 1214.77 853.559 1255.469 853.559 1255.469 940.195"/><polygon class="cls-15" points="1202.445 882.778 1178.719 882.774 1178.715 940.195 1195.719 940.195 1202.441 932.98 1202.445 882.778"/><polygon class="cls-15" points="1127.992 853.559 1178.719 853.559 1178.719 940.195 1174.805 940.195 1160.613 929.18 1152.77 929.18 1152.77 892.016 1127.992 892.016 1127.992 853.559"/><rect class="cls-15" x="1127.992" y="892.016" width="24.777" height="37.164"/><polygon class="cls-15" points="1104.961 853.559 1127.992 853.559 1127.992 929.18 1115.793 929.18 1108.789 931.98 1104.961 931.98 1104.961 853.559"/><rect class="cls-15" x="1079.941" y="890.898" width="25.02" height="41.082"/><polygon class="cls-15" points="1048.938 882.306 1057.898 882.306 1057.898 853.559 1104.961 853.559 1104.961 890.898 1079.941 890.898 1079.941 931.98 1048.938 931.98 1048.938 882.306"/><polygon class="cls-15" points="1022.047 853.559 1022.047 931.98 1048.938 931.98 1048.938 882.306 1057.898 882.306 1057.898 853.559 1022.047 853.559"/><polygon class="cls-15" points="974.609 863.754 901.219 863.754 901.219 797.523 1027.27 797.523 1027.27 853.559 1022.047 853.559 1022.047 931.98 1000.383 931.98 980.59 935.374 974.609 935.374 974.609 863.754"/><polygon class="cls-15" points="939.129 935.374 939.129 900.605 925.188 900.605 925.188 863.754 974.609 863.754 974.609 935.374 939.129 935.374"/><rect class="cls-15" x="925.188" y="900.605" width="13.941" height="34.769"/><polygon class="cls-15" points="907.383 935.374 907.383 883.055 901.219 880.062 901.219 863.754 925.188 863.754 925.188 935.374 907.383 935.374"/><polygon class="cls-15" points="851.73 853.559 851.73 935.374 907.383 935.374 907.383 883.055 901.219 880.062 901.219 853.559 851.73 853.559"/><rect class="cls-15" x="815.879" y="853.559" width="35.852" height="81.816"/><polygon class="cls-15" points="755.527 882.43 755.527 853.559 729.961 853.559 729.961 861.139 697.852 861.139 697.852 935.374 764.336 935.374 764.336 882.43 755.527 882.43"/><polygon class="cls-15" points="729.961 861.139 729.961 853.559 697.852 853.559 650.793 853.559 650.793 935.374 697.852 935.374 697.852 861.139 729.961 861.139"/><polygon class="cls-15" points="770.312 853.559 770.312 882.43 789.363 882.43 789.363 935.374 815.879 935.374 815.879 853.559 770.312 853.559"/><polygon class="cls-15" points="770.312 882.43 770.312 853.559 755.527 853.559 755.527 882.43 764.336 882.43 764.336 935.374 789.363 935.374 789.363 882.43 770.312 882.43"/><rect class="cls-15" x="620.172" y="853.559" width="30.621" height="81.816"/><rect class="cls-15" x="590.66" y="853.559" width="29.512" height="81.816"/><polygon class="cls-15" points="573.477 853.559 573.477 929.367 579.832 935.374 590.66 935.374 590.66 853.559 573.477 853.559"/><rect class="cls-15" x="240.793" y="716.102" width="294.91" height="433.258"/><rect class="cls-15" x="535.703" y="1000.331" width="37.781" height="38.845"/><polygon class="cls-15" points="600 1000.331 573.484 1000.331 573.484 1048.883 615.812 1048.883 615.812 1015.734 600 1000.331"/><polygon class="cls-15" points="603.359 1096.844 535.68 1096.844 535.703 1039.176 573.484 1039.176 573.484 1048.883 615.812 1048.883 615.812 1080.258 603.359 1091.837 603.359 1096.844"/><rect class="cls-15" x="649.902" y="1075.774" width="120.312" height="37.851"/><rect class="cls-15" x="649.902" y="1047.391" width="41.637" height="28.383"/><rect class="cls-15" x="691.539" y="1000.704" width="38.992" height="75.07"/><rect class="cls-15" x="730.531" y="1000.704" width="39.683" height="75.07"/><rect class="cls-15" x="770.215" y="1000.704" width="25.242" height="75.07"/><rect class="cls-15" x="795.457" y="1000.704" width="24.898" height="38.843"/><rect class="cls-15" x="873.77" y="1000.704" width="46.684" height="75.07"/><polygon class="cls-15" points="1068.355 1000.704 1068.355 1061.206 1105.516 1061.206 1105.516 1289.04 942.809 1289.04 942.809 1226.667 991.668 1226.667 991.668 1000.704 1068.355 1000.704"/><rect class="cls-15" x="1068.355" y="1000.704" width="49.113" height="60.502"/><rect class="cls-15" x="1117.469" y="1000.704" width="24.09" height="60.502"/><rect class="cls-15" x="1141.559" y="1000.704" width="37.91" height="60.502"/><rect class="cls-15" x="1179.469" y="1000.704" width="36.414" height="60.502"/><rect class="cls-15" x="1215.883" y="1000.704" width="37.348" height="60.502"/><rect class="cls-15" x="1253.23" y="1000.704" width="36.793" height="60.502"/><rect class="cls-15" x="1290.023" y="1000.704" width="37.906" height="60.502"/><rect class="cls-15" x="1362.664" y="996.965" width="42.207" height="25.774"/><rect class="cls-15" x="1252.859" y="960.125" width="20.543" height="13.446"/><rect class="cls-15" x="1383.129" y="960.125" width="20.543" height="13.446"/><rect class="cls-15" x="1181.148" y="959.005" width="18.672" height="14.566"/><rect class="cls-15" x="972.566" y="955.403" width="25.398" height="20.914"/><rect class="cls-15" x="911.484" y="955.403" width="25.398" height="20.914"/><polygon class="cls-15" points="1068.355 972 1068.355 955.403 1039.973 955.403 1039.973 976.314 1063.336 976.314 1063.336 972.4 1068.355 972"/><polygon class="cls-15" points="1404.488 1061.206 1105.516 1061.206 1105.516 1289.04 1552.766 1289.04 1552.766 1225.173 1514.297 1225.173 1514.297 1074.278 1438.102 1074.278 1404.488 1061.206"/><polygon class="cls-15" points="1475.824 1034.688 1490.766 1020.867 1546.789 1020.867 1546.789 1074.278 1475.824 1074.278 1475.824 1034.688"/><polygon class="cls-15" points="1632.316 1016.762 1551.645 1016.762 1546.789 1020.867 1546.789 1074.278 1649.496 1074.278 1649.496 1032.079 1632.316 1016.762"/><polygon class="cls-15" points="1950.16 1044.398 1649.496 1044.398 1649.496 1074.278 1514.297 1074.278 1514.297 1225.173 1552.766 1225.173 1552.766 1289.04 1950.16 1289.04 1950.16 1044.398"/><polygon class="cls-15" points="2000.211 982.027 1919 982.027 1919 1044.398 1950.16 1044.398 1950.16 1030.206 1968.086 1030.206 2010.293 1012.278 2000.211 982.027"/><rect class="cls-15" x="1543.598" y="952.754" width="19.402" height="21"/><rect class="cls-15" x="1650.82" y="954.307" width="21.008" height="19.483"/><rect class="cls-15" x="1698.555" y="938.98" width="27.234" height="22.752"/><path class="cls-15" d="m1775.613,942.278c-.992,0-1.926.197-2.824.486-1.734-2.722-4.762-4.536-8.227-4.536-5.395,0-9.77,4.373-9.77,9.77s4.375,9.77,9.77,9.77c.613,0,1.203-.073,1.781-.178v3.311c0,5.117,4.152,9.267,9.27,9.267s9.269-4.15,9.269-9.267v-9.354c0-5.119-2.894-9.27-9.269-9.27Z"/><polygon class="cls-15" points="649.902 1015.734 665.641 1000.704 691.539 1000.704 691.539 1047.391 649.902 1047.391 649.902 1015.734"/><line class="cls-15" x1="942.809" y1="1112.469" x2="942.809" y2="1122.079"/><polyline class="cls-15" points="942.809 1166.317 942.809 1184.461 942.809 1226.667"/><polygon class="cls-15" points="254.25 1362.5 231.605 1362.5 231.605 1611.306 649.902 1611.306 649.902 1294.256 649.902 1294.256 649.902 1289.04 615.812 1289.04 615.812 1280.706 254.25 1280.706 254.25 1362.5"/><rect class="cls-15" x="942.809" y="1069.334" width="48.859" height="43.135"/><rect class="cls-15" x="942.809" y="1000.704" width="48.859" height="68.63"/><polyline class="cls-15" points="1954.273 846.403 2001.352 950.862 1990.773 955.656 1850.07 955.656 1850.07 846.403 1954.273 846.403"/><polygon class="cls-15" points="1816.074 1020.403 1816.074 1002.195 1796.656 1002.195 1796.656 1032.079 1807.859 1044.398 1850.07 1044.398 1850.07 1020.403 1816.074 1020.403"/><polygon class="cls-15" points="1872.848 982.027 1816.074 982.027 1816.074 1002.195 1816.074 1020.403 1850.07 1020.403 1850.07 1044.398 1872.848 1044.398 1872.848 982.027"/><polygon class="cls-15" points="1909.074 982.027 1872.848 982.027 1872.848 1006.036 1886.82 1006.036 1886.82 1014.11 1909.074 1014.11 1909.074 982.027"/><polygon class="cls-15" points="1736.883 846.403 1716.172 846.403 1716.172 857.139 1692.621 857.139 1692.621 919.656 1736.883 919.656 1796.102 919.656 1796.102 846.403 1736.883 846.403"/><polygon class="cls-15" points="584.125 1142.655 584.125 1117.243 535.68 1117.243 535.703 1149.359 372.633 1149.359 372.633 1280.706 615.812 1280.706 615.812 1142.655 584.125 1142.655"/><rect class="cls-15" x="584.125" y="1117.243" width="31.688" height="25.412"/><polygon class="cls-15" points="732.301 1168.254 770.309 1168.254 770.309 1150.102 793.465 1150.102 793.465 1113.625 649.902 1113.625 649.902 1181.949 732.301 1181.949 732.301 1168.254"/><polygon class="cls-15" points="759.148 1254.754 759.148 1168.254 732.301 1168.254 732.301 1181.949 649.902 1181.949 649.902 1289.04 685.012 1289.04 685.012 1254.754 759.148 1254.754"/><polygon class="cls-15" points="873.77 1075.774 873.77 1000.704 820.355 1000.704 820.355 1039.547 795.457 1039.547 795.457 1075.774 770.215 1075.774 770.215 1113.625 793.465 1113.625 793.465 1150.102 770.309 1150.102 770.309 1168.254 770.309 1268.16 754.375 1268.16 754.375 1276.706 737.949 1276.706 737.949 1289.04 893.379 1289.04 893.379 1252.43 920.453 1252.43 920.453 1075.774 873.77 1075.774"/></g><g id="WEB_Map_labels"><use id="road_StamfordRd-2" width="221.303" height="17.377" transform="translate(1040.559 1376.499)" xlink:href="#road_StamfordRd"/><use id="road_MusgraveRd-2" width="222.262" height="17.377" transform="translate(1041.184 640.835)" xlink:href="#road_MusgraveRd"/><use id="road_MoggillRd-2" width="200.59" height="17.377" transform="translate(1958.156 670.041) rotate(65.001)" xlink:href="#road_MoggillRd"/><use id="road_StationRd-2" width="188.471" height="17.377" transform="translate(37.712 783.265) rotate(90)" xlink:href="#road_StationRd"/></g></svg>